<svg xmlns="http://www.w3.org/2000/svg" id="Слой_1" data-name="Слой 1" viewBox="0 0 105.14 99.96">
  <defs>
    <style>
      .cls-4{fill:#d0cfce}.cls-7,.cls-8{fill:none;stroke:#000;stroke-linecap:round;stroke-linejoin:round}.cls-7{stroke-width:2.15px}.cls-8{stroke-width:2px}
    </style>
  </defs>
  <path fill="#fff" fill-rule="evenodd" d="m72.68 0 32.46 42.34-20 48.85L14.46 100l6.6-17L0 55.76 20.73 6.31Z"/>
  <path fill="#fff" d="M76.94 34.72 24 57.06 19.79 47a1.87 1.87 0 0 1 1-2.44l49.47-20.9a1.87 1.87 0 0 1 2.44 1Z"/>
  <path fill="#ea5a47" d="m23.16 55 52.9-22.34 5.29 12.51a2.06 2.06 0 0 1-1.1 2.7l-49.1 20.72a2 2 0 0 1-2.7-1.09Z"/>
  <path d="m26.73 48.86 8.27-3.5 8.17 19.24-8.31 3.51Z" class="cls-4"/>
  <path fill="#92d3f5" d="m50.18 49.8-5.63 2.39a.93.93 0 0 1-1.25-.3L40 44.08a.93.93 0 0 1 .66-1.1l5.64-2.38a.93.93 0 0 1 1.25.3l3.29 7.8c.16.39-.13.88-.66 1.1Zm11.25-4.75-5.63 2.38a.93.93 0 0 1-1.25-.29l-3.3-7.81a.93.93 0 0 1 .66-1.1l5.64-2.38a.93.93 0 0 1 1.25.29L62.09 44c.17.34-.09.83-.66 1.05Zm11.25-4.75-5.63 2.38a.94.94 0 0 1-1.26-.3l-3.29-7.8c-.17-.39.13-.88.66-1.1l5.63-2.38a.93.93 0 0 1 1.26.29l3.29 7.81c.17.38-.13.88-.66 1.1Z"/>
  <path fill="#3f3f3f" d="M29.64 70.31 82.54 48l.52 1.24a1.79 1.79 0 0 1-1 2.35l-49.59 21a1.79 1.79 0 0 1-2.35-1Z"/>
  <path d="M43.79 75.2a6 6 0 0 1-7.86-3.2 5.41 5.41 0 0 1-.32-1 1 1 0 0 1 .59-1.15L45.27 66a1 1 0 0 1 1.23.38 6 6 0 0 1-1.8 8.29 6.12 6.12 0 0 1-.91.53Zm32.42-13.7a6 6 0 0 1-7.86-3.19 6.6 6.6 0 0 1-.32-1 1 1 0 0 1 .59-1.15l9.07-3.84a1 1 0 0 1 1.23.38 6 6 0 0 1-1.8 8.3 5.27 5.27 0 0 1-.91.5Z" class="cls-4"/>
  <path d="m81.8 51.7-49 20.68a2.14 2.14 0 0 1-2.8-1.13l-9.73-23.12a2.89 2.89 0 0 1 1.25-3.88L69.51 24a2.88 2.88 0 0 1 3.65 1.8l9.77 23.1a2.14 2.14 0 0 1-1.13 2.8Z" class="cls-7"/>
  <path d="m28 70 6.48-2.74-7.21-16.99a1.36 1.36 0 0 1 .48-1.83L34 45.79a1.37 1.37 0 0 1 1.64.94l7.16 16.94L83.23 46.6" class="cls-8"/>
  <path d="m50.18 49.8-5.63 2.39a.93.93 0 0 1-1.25-.3L40 44.08a.93.93 0 0 1 .66-1.1l5.64-2.38a.93.93 0 0 1 1.25.3l3.29 7.8c.16.39-.13.88-.66 1.1Zm11.25-4.75-5.63 2.38a.93.93 0 0 1-1.25-.29l-3.3-7.81a.93.93 0 0 1 .66-1.1l5.64-2.38a.93.93 0 0 1 1.25.29L62.09 44c.17.34-.09.83-.66 1.05Zm11.25-4.75-5.63 2.38a.94.94 0 0 1-1.26-.3l-3.29-7.8c-.17-.39.13-.88.66-1.1l5.63-2.38a.93.93 0 0 1 1.26.29l3.29 7.81c.17.38-.13.88-.66 1.1ZM45.66 67a5 5 0 0 1-8.41 5.41 5 5 0 0 1-.66-1.57m41.49-17.58A5 5 0 1 1 69 57.1" class="cls-8"/>
  <path d="m33.11 56.86-2.54 1.08" class="cls-7"/>
  <path d="m62.38 27-8.61-4.45 3.31-9" class="cls-8"/>
</svg>
