<svg xmlns="http://www.w3.org/2000/svg" viewBox="0 0 1173 363" >
  <defs>
    <linearGradient id="b" x1="2" x2="0" y1="0" y2="100%" gradientTransform="rotate(45)">
      <stop offset="30%" stop-color="#7182f6"/>
      <stop offset="70%" stop-color="#de709f"/>
    </linearGradient>
    <linearGradient id="a" x1="2" x2="0" y1="0" y2="100%" gradientTransform="rotate(45)">
      <stop offset="30%" stop-color="#86e2d8"/>
      <stop offset="70%" stop-color="#4a52e3"/>
    </linearGradient>
  </defs>
  <path fill="url(#a)" d="M100.51 319.4h30.621v-44.03h9.422l27.179 44.03h35.877l-32.978-47.835q12.5-4.892 18.935-14.676A40.625 40.625 0 0 0 196 234.057q0-18.482-12.5-29.987t-36.782-11.506h-46.2V319.4Zm58.525-96.576q5.253 4.349 5.255 12.321 0 7.794-5.255 12.14t-14.5 4.349h-13.404v-33.159h13.409q9.24 0 14.495 4.348Zm143.143 73.746-24.461-5.98q-6.162 10.872-20.656 10.872-7.975 0-12.865-4.62t-6.161-13.318h63.6c.119-.844.21-1.9.272-3.171s.09-2.565.09-3.9q0-20.112-11.687-31.165t-33.248-11.053q-21.927 0-34.427 11.687t-12.5 31.8q0 13.228 5.707 23.011a38.278 38.278 0 0 0 16.4 15.13q10.689 5.343 25.186 5.345 31.527 0 44.755-24.642Zm-34.427-39.77q4.349 4.26 4.892 11.506h-34.064q3.078-15.764 17.938-15.764a15.387 15.387 0 0 1 11.234 4.258Zm54.177-41.4a17.345 17.345 0 0 0 22.558 0 13.745 13.745 0 0 0 4.621-10.69 13.474 13.474 0 0 0-4.621-10.6 17.64 17.64 0 0 0-22.558 0 13.35 13.35 0 0 0-4.711 10.6 13.617 13.617 0 0 0 4.711 10.684Zm-1.993 104h26.454v-83.35h-26.454v83.35Zm170.23-77.007q-5.889-8.333-20.384-8.335a31.493 31.493 0 0 0-15.22 3.624 32.193 32.193 0 0 0-11.234 10.147 19.807 19.807 0 0 0-8.335-10.237q-5.8-3.534-15.582-3.534a26.91 26.91 0 0 0-14.587 3.805 26.274 26.274 0 0 0-9.512 10.51V236.05h-26.454v83.35h26.454v-50.735q0-7.61 3.352-11.506a11.235 11.235 0 0 1 8.969-3.895q10.506 0 10.509 15.4V319.4h27.542v-50.735q0-7.61 3.352-11.506a11.234 11.234 0 0 1 8.965-3.895q10.506 0 10.509 15.4V319.4h27.541v-53.634q.004-15.037-5.885-23.374Zm42.037 16.4a60.037 60.037 0 0 1 9.422-2.99 47.444 47.444 0 0 1 10.962-1.268q15.765 0 15.764 12.321v7.429a44.983 44.983 0 0 0-10.6-3.9 58.959 58.959 0 0 0-14.042-1.54q-15.585 0-24.1 6.976t-8.516 18.935q0 8.7 4.077 14.586a25.43 25.43 0 0 0 10.781 8.878 36.058 36.058 0 0 0 14.858 2.99 38.51 38.51 0 0 0 16.217-3.443 24.449 24.449 0 0 0 11.325-9.967v11.6h26.273v-58.707a22.017 22.017 0 0 0-5.073-14.586 31.587 31.587 0 0 0-13.771-9.241 57.464 57.464 0 0 0-19.75-3.171 73.358 73.358 0 0 0-21.743 3.08 121.007 121.007 0 0 0-17.032 6.523l9.241 18.3a38.351 38.351 0 0 1 5.705-2.808Zm9.6 27.541q3.168-2.445 10.419-2.446a39.68 39.68 0 0 1 16.126 3.262q-.543 8.154-5.8 12.23a19 19 0 0 1-11.959 4.077 13.617 13.617 0 0 1-8.516-2.627 8.89 8.89 0 0 1-3.442-7.52 8.292 8.292 0 0 1 3.17-6.979ZM618 344.857a33.85 33.85 0 0 0 15.039 13.136Q643 362.7 658.584 362.7a57.38 57.38 0 0 0 23.1-4.529 36.562 36.562 0 0 0 16.67-14.5q6.252-9.967 6.251-26.092V236.05h-26.271v12.5q-9.966-14.311-28.447-14.315a41.439 41.439 0 0 0-19.388 4.711 36.62 36.62 0 0 0-14.676 14.134q-5.619 9.423-5.617 23.555 0 13.954 5.617 23.374a37.215 37.215 0 0 0 14.677 14.226 40.779 40.779 0 0 0 19.388 4.8q18.482 0 28.447-14.5v13.046q0 11.593-6.07 17.4a20.6 20.6 0 0 1-14.767 5.8q-7.976 0-13.136-3.8t-5.889-11.6h-26.455A44.194 44.194 0 0 0 618 344.857Zm26.9-83.257a20.378 20.378 0 0 1 14.043-5.255 20.589 20.589 0 0 1 9.15 2.174 18.141 18.141 0 0 1 7.338 6.7 20.818 20.818 0 0 1 2.9 11.416 20.447 20.447 0 0 1-2.9 11.234 18.791 18.791 0 0 1-7.338 6.794 19.887 19.887 0 0 1-9.15 2.265 20.368 20.368 0 0 1-14.043-5.254q-5.89-5.253-5.889-15.039T644.9 261.6Zm83.8-46.2a17.346 17.346 0 0 0 22.559 0 13.745 13.745 0 0 0 4.62-10.69 13.473 13.473 0 0 0-4.62-10.6 17.641 17.641 0 0 0-22.559 0 13.353 13.353 0 0 0-4.7 10.59 13.62 13.62 0 0 0 4.706 10.694Zm-1.987 104h26.454v-83.35h-26.454v83.35Zm103.1 0h28.447v-53.634q0-15.038-7.066-23.374t-22.65-8.335q-9.24 0-15.492 3.805a26.841 26.841 0 0 0-9.875 10.691v-12.5h-27.542V319.4h27.541v-50.735q0-7.428 3.9-11.415t10.6-3.986q6.523 0 9.331 3.986t2.809 11.415V319.4Zm137.163-22.83-24.461-5.98q-6.162 10.872-20.656 10.872-7.975 0-12.865-4.62t-6.16-13.318h63.6c.119-.844.21-1.9.272-3.171s.091-2.565.091-3.9q0-20.112-11.687-31.165t-33.249-11.053q-21.925 0-34.427 11.687t-12.5 31.8q0 13.228 5.707 23.011a38.29 38.29 0 0 0 16.4 15.13q10.689 5.343 25.186 5.345 31.529 0 44.755-24.642Zm-34.428-39.77q4.349 4.26 4.892 11.506h-34.064q3.08-15.764 17.938-15.764a15.386 15.386 0 0 1 11.234 4.258Zm51.822 44.755a38.026 38.026 0 0 0 14.676 14.676 39.632 39.632 0 0 0 19.384 4.983q18.3 0 28.45-15.039V319.4h27.36V178.069h-27.36v71.208q-10.155-15.037-28.45-15.039a39.632 39.632 0 0 0-19.384 4.983A38.063 38.063 0 0 0 984.37 253.9q-5.619 9.694-5.617 23.827t5.617 23.825Zm29.08-39.41a19.32 19.32 0 0 1 14.04-5.8 18.23 18.23 0 0 1 9.15 2.537 20.348 20.348 0 0 1 7.34 7.338 24.276 24.276 0 0 1 0 23.012 20.3 20.3 0 0 1-7.34 7.338 18.2 18.2 0 0 1-9.15 2.537 19.306 19.306 0 0 1-14.04-5.8q-5.9-5.8-5.89-15.582t5.89-15.583Z"/>
  <path fill="url(#b)" d="M35.222 41.052v99.475h30.621V41.052h34.97v-27.36H.432v27.36h34.79Zm145.86 76.648-24.461-5.979q-6.162 10.871-20.656 10.871-7.976 0-12.865-4.62t-6.16-13.318h63.6c.119-.843.21-1.9.272-3.171s.091-2.565.091-3.9q0-20.112-11.687-31.165t-33.251-11.051q-21.925 0-34.427 11.687t-12.5 31.8q0 13.229 5.708 23.012a38.281 38.281 0 0 0 16.4 15.129q10.689 5.343 25.186 5.345 31.529 0 44.755-24.642Zm-34.427-39.775q4.349 4.259 4.892 11.506h-34.064q3.079-15.764 17.938-15.764a15.387 15.387 0 0 1 11.234 4.258Zm51.1 62.6h27.541V-.8h-27.544v141.33ZM333.828 117.7l-24.461-5.979q-6.162 10.871-20.656 10.871-7.976 0-12.865-4.62t-6.161-13.318h63.6c.119-.843.21-1.9.272-3.171s.091-2.565.091-3.9q0-20.112-11.687-31.165t-33.25-11.051q-21.927 0-34.427 11.687t-12.5 31.8q0 13.229 5.707 23.012a38.276 38.276 0 0 0 16.4 15.129q10.689 5.343 25.186 5.345 31.527 0 44.755-24.642ZM299.4 77.925q4.349 4.259 4.892 11.506h-34.063q3.079-15.764 17.938-15.764a15.388 15.388 0 0 1 11.233 4.258Zm54 88.06a33.858 33.858 0 0 0 15.039 13.137q9.962 4.708 25.548 4.711a57.383 57.383 0 0 0 23.1-4.53 36.567 36.567 0 0 0 16.67-14.5q6.251-9.966 6.251-26.092V57.179h-26.274v12.5q-9.967-14.311-28.447-14.314a41.427 41.427 0 0 0-19.387 4.713 36.615 36.615 0 0 0-14.677 14.133q-5.618 9.423-5.617 23.555 0 13.955 5.617 23.374a37.211 37.211 0 0 0 14.677 14.223 40.777 40.777 0 0 0 19.388 4.8q18.482 0 28.447-14.495v13.045q0 11.6-6.07 17.4a20.594 20.594 0 0 1-14.767 5.8q-7.976 0-13.137-3.8t-5.889-11.6h-26.455a44.182 44.182 0 0 0 5.983 19.472Zm26.9-83.258a20.983 20.983 0 0 1 23.192-3.08 18.148 18.148 0 0 1 7.339 6.7 20.816 20.816 0 0 1 2.9 11.415 20.448 20.448 0 0 1-2.9 11.234 18.8 18.8 0 0 1-7.339 6.8 19.9 19.9 0 0 1-9.15 2.264 20.366 20.366 0 0 1-14.042-5.254q-5.89-5.253-5.889-15.039t5.889-15.04Zm143.6-20.656a15.315 15.315 0 0 0-6.341-4.983 20.732 20.732 0 0 0-8.7-1.9 22.046 22.046 0 0 0-11.415 3.352 28.976 28.976 0 0 0-9.422 9.15V57.179h-27v83.348h27V99.4q0-9.058 3.624-13.861a11.622 11.622 0 0 1 9.784-4.8A13.257 13.257 0 0 1 507.411 82a18.167 18.167 0 0 1 4.711 3.443Zm26.364 17.848a60 60 0 0 1 9.422-2.99 47.4 47.4 0 0 1 10.962-1.268q15.763 0 15.764 12.321v7.428a44.953 44.953 0 0 0-10.6-3.9 58.912 58.912 0 0 0-14.042-1.54q-15.586 0-24.1 6.976t-8.516 18.935q0 8.7 4.077 14.586a25.426 25.426 0 0 0 10.781 8.879 36.071 36.071 0 0 0 14.858 2.989 38.52 38.52 0 0 0 16.216-3.442 24.458 24.458 0 0 0 11.325-9.966v11.6h26.273V81.821a22.015 22.015 0 0 0-5.074-14.586 31.584 31.584 0 0 0-13.77-9.241 57.465 57.465 0 0 0-19.75-3.171 73.329 73.329 0 0 0-21.743 3.08 120.926 120.926 0 0 0-17.033 6.523l9.241 18.3a38.365 38.365 0 0 1 5.708-2.808Zm9.6 27.542q3.168-2.447 10.419-2.446a39.683 39.683 0 0 1 16.126 3.261q-.544 8.154-5.8 12.231a19 19 0 0 1-11.959 4.076 13.611 13.611 0 0 1-8.516-2.627 8.89 8.89 0 0 1-3.443-7.519 8.289 8.289 0 0 1 3.175-6.977Zm194.6-43.94q-5.889-8.332-20.384-8.335a31.494 31.494 0 0 0-15.22 3.624 32.2 32.2 0 0 0-11.234 10.147 19.812 19.812 0 0 0-8.335-10.237q-5.8-3.533-15.582-3.533a26.9 26.9 0 0 0-14.586 3.805 26.268 26.268 0 0 0-9.51 10.508V57.179h-26.454v83.348h26.454V89.793q0-7.61 3.352-11.506a11.235 11.235 0 0 1 8.969-3.9q10.506 0 10.509 15.4v50.734h27.542V89.793q0-7.61 3.352-11.506a11.234 11.234 0 0 1 8.969-3.9q10.506 0 10.509 15.4v50.734h27.541V86.894q0-15.037-5.889-23.374Zm111.075 19.84a21.642 21.642 0 0 1 15.673-6.251 33.552 33.552 0 0 1 13.771 3.171 24.28 24.28 0 0 1 10.871 9.15V62.614a39.64 39.64 0 0 0-10.871-5.164 52.983 52.983 0 0 0-15.945-2.084 55.569 55.569 0 0 0-24.824 5.345 41.686 41.686 0 0 0-17.123 15.13q-6.25 9.784-6.251 23.011t6.251 23.012a41.668 41.668 0 0 0 17.123 15.129 61.958 61.958 0 0 0 40.769 3.352 30.79 30.79 0 0 0 10.871-5.617v-26.634a25.375 25.375 0 0 1-10.418 9.241 31.736 31.736 0 0 1-14.224 3.261 22.558 22.558 0 0 1-15.673-5.8q-6.433-5.8-6.433-15.945a20.734 20.734 0 0 1 6.433-15.49Zm114.242 57.166h27.359v-54.72q0-15.4-6.61-23.555T978.513 54.1q-9.242 0-15.583 3.986a27.227 27.227 0 0 0-9.784 10.509V-.8H925.6v141.33h27.542V89.793q0-7.245 3.9-11.325t10.6-4.077q6.7 0 9.422 3.986t2.718 11.415v50.734Zm63.689-60.609a60.214 60.214 0 0 1 9.42-2.99 47.413 47.413 0 0 1 10.96-1.268q15.765 0 15.77 12.321v7.429a44.936 44.936 0 0 0-10.6-3.9 58.925 58.925 0 0 0-14.04-1.54q-15.585 0-24.1 6.976t-8.52 18.935q0 8.7 4.08 14.586a25.441 25.441 0 0 0 10.78 8.879 36.077 36.077 0 0 0 14.86 2.989 38.473 38.473 0 0 0 16.21-3.442 24.491 24.491 0 0 0 11.33-9.966v11.6h26.27V81.821a22.017 22.017 0 0 0-5.07-14.586 31.613 31.613 0 0 0-13.77-9.241 57.5 57.5 0 0 0-19.75-3.171 73.391 73.391 0 0 0-21.75 3.08 121.067 121.067 0 0 0-17.03 6.523l9.24 18.3a38.465 38.465 0 0 1 5.71-2.808Zm9.6 27.542q3.18-2.447 10.42-2.446a39.712 39.712 0 0 1 16.13 3.261q-.54 8.154-5.8 12.231a18.99 18.99 0 0 1-11.96 4.076 13.593 13.593 0 0 1-8.51-2.627 8.885 8.885 0 0 1-3.45-7.519 8.3 8.3 0 0 1 3.17-6.976Zm63.51-27.632h14.68v60.7h26.27v-60.7h14.86V57.179h-14.86V28.188h-26.27v28.991h-14.68v22.649Z"/>
</svg>
